<svg xmlns="http://www.w3.org/2000/svg" xml:space="preserve" viewBox="0 0 110.13 122.88"><path d="M83.79 26.27c-.26 1.8-.55 3.66-.81 5.4l.3 3.33c.96.1 1.67.66 2.16 1.53.59 1.07.76 2.63.61 4.35-.15 1.63-.58 3.42-1.21 5.03-1.11 2.85-2.89 5.2-4.97 5.47-.22.73-.45 1.48-.66 2.2-1.07 3.6-1.9 6.43-4.09 9.2-2.43 3.08-5.58 5.44-8.91 7.04-3.66 1.76-7.56 2.63-11.03 2.56-3.27-.07-7-.98-10.52-2.69-3.21-1.55-6.27-3.77-8.69-6.6-2.67-3.13-3.79-6.44-5.23-10.75-.17-.51-.35-1.04-.51-1.53-1.83-.02-3.37-1.58-4.46-3.74-.85-1.68-1.44-3.75-1.65-5.66-.22-2-.04-3.89.69-5.08.51-.84 1.24-1.37 2.2-1.44l.29-2.97c-.38-2.3-.82-4.71-1.15-7.02-4.54-31.8 62.89-35.04 57.64 1.37zM80.2 90.75c-.01-.08-.02-.17-.02-.26s0-.17.02-.26v-5.6c-4.64-.37-9.42.06-13.59 1.4-3.9 1.25-7.27 3.32-9.46 6.27v27.11c3.4-1.93 6.88-3.51 10.45-4.59 4.07-1.23 8.26-1.81 12.59-1.52V90.75h.01zm-27.05 28.34V92.25c-2.1-3.14-5.49-5.24-9.33-6.48-4.35-1.41-9.23-1.73-13.48-1.21l-.23 28.86c4.64-.14 9.19.36 13.46 1.54 3.4.93 6.62 2.31 9.58 4.13zm31.66-.07c-4.18-.83-8.33-1.34-12.46-1.36-5.36-.03-10.72 2.93-16.1 4.94-.33.19-.73.29-1.14.28-.4.01-.8-.1-1.14-.28-5.37-2.02-10.74-4.97-16.1-4.94-4.16.02-8.35.54-12.56 1.38 0-5.91.15-6.65.34-12.02H0c2.19-8.16 1.59-13.44 5.67-21.1 1.66-3.11 3.78-5.05 7.89-7.63 6.45-4.04 15.15-7.3 23.68-10.6-1.31 6.82 1.18 11.44 5.38 14.18.89.21 1.76.45 2.62.72 1.65.54 3.24 1.21 4.71 2.02 3.89.68 8.13.48 11.96-.49 1.05-.48 2.15-.91 3.29-1.27.47-.15.95-.29 1.44-.43 5.94-2.88 9.49-8.02 6.25-14.74 8.53 3.3 17.23 6.56 23.68 10.6 4.1 2.57 6.23 4.51 7.89 7.63 4.09 7.66 3.49 12.94 5.67 21.1H84.6c.12 5.37.21 6.06.21 12.01zM47.89 61.39c-.45-.36-.52-1.01-.17-1.46.36-.45 1.01-.52 1.46-.17 2.15 1.72 4.16 2.56 6.03 2.56 1.83-.01 3.59-.84 5.28-2.49.41-.4 1.07-.39 1.47.02s.39 1.07-.02 1.47c-2.08 2.03-4.33 3.07-6.72 3.07-2.36.02-4.8-.98-7.33-3zm4.16-6.57c-.42-.39-.45-1.04-.07-1.47.39-.42 1.04-.45 1.47-.07.53.48 1.03.71 1.5.71.47-.01.98-.25 1.53-.72.44-.38 1.09-.33 1.46.11.38.44.33 1.09-.11 1.46-.92.79-1.88 1.22-2.87 1.23-1.01.01-1.98-.4-2.91-1.25zm-6.37-9.02c.02.12.04.25.04.38a1.9 1.9 0 1 1-3.8 0c0-.27.06-.53.16-.77-.98.07-1.97.29-2.96.68-.48.19-1-.11-1.17-.65-.16-.54.09-1.14.57-1.33 1.44-.57 2.89-.82 4.34-.81 1.44.01 2.88.29 4.31.81.48.17.75.76.59 1.3-.15.55-.67.85-1.15.68-.3-.1-.61-.2-.93-.29zm18.65-.17c-.02.11-.04.23-.04.35a1.9 1.9 0 1 0 3.8 0c0-.24-.04-.46-.12-.67.98.07 1.96.27 2.96.59.49.16 1-.17 1.13-.72.14-.55-.14-1.13-.63-1.29-1.44-.47-2.88-.7-4.32-.7-1.43 0-2.86.24-4.26.71-.48.16-.77.74-.63 1.29s.65.87 1.13.71c.33-.09.65-.19.98-.27zm8.97-6.5c.44.36.51 1.02.14 1.46s-1.02.51-1.46.14c-1.44-1.19-4.4-.66-6.93-.2-1.37.25-2.63.47-3.65.44-.57-.02-1.02-.5-1-1.07s.5-1.02 1.07-1c.8.03 1.96-.18 3.2-.41 2.98-.54 6.45-1.16 8.63.64zm-35.27 1.81c-.44.37-1.1.3-1.46-.14-.37-.44-.3-1.1.14-1.46 2.18-1.8 5.64-1.18 8.62-.64 1.25.22 2.41.43 3.2.41.57-.02 1.05.43 1.07 1s-.43 1.05-1 1.07c-1.01.04-2.27-.19-3.65-.44-2.52-.46-5.48-.99-6.92.2zm-8.83 1.04c.17-.29.54-.39.84-.22.29.17.39.54.22.84-.21.35-.32.7-.33 1.03-.01.32.09.64.31.97.19.28.12.66-.17.85a.61.61 0 0 1-.85-.16c-.38-.55-.54-1.11-.52-1.68.03-.57.2-1.11.5-1.63zm50.35.6c-.17-.29-.07-.67.22-.84s.67-.06.84.22c.3.52.48 1.07.5 1.61.01.57-.15 1.13-.52 1.68-.19.28-.57.35-.85.17a.622.622 0 0 1-.17-.85c.22-.33.32-.65.31-.97 0-.31-.13-.66-.33-1.02zm1.91-5.96-3.13 1.96-1.29-8.79c-6.52 4.06-13.96 5.88-22.06 6.08-7.75-.06-15.19-1.76-22.11-6.11l-1.41 8.51-2.77-1.56c-.25.27-.64.4-1.01.3-.53-.14-.89.04-1.11.39-.47.78-.58 2.19-.39 3.78.19 1.68.7 3.49 1.44 4.95.85 1.68 1.94 2.85 3.04 2.54.52-.15 1.08.13 1.26.66.32.94.57 1.65.8 2.34 1.37 4.09 2.43 7.24 4.84 10.06 2.22 2.6 5.04 4.64 8.01 6.08 3.26 1.58 6.68 2.43 9.66 2.48 3.15.07 6.72-.73 10.09-2.35 3.07-1.48 5.96-3.64 8.19-6.46 1.93-2.44 2.72-5.11 3.72-8.49.26-.87.53-1.8.88-2.89.12-.54.64-.89 1.19-.79 1.31.23 2.68-1.74 3.62-4.15.57-1.44.95-3.03 1.08-4.46.12-1.33.02-2.49-.35-3.17-.2-.37-.55-.54-1.07-.43-.04.01-.08.01-.12.02-.43.04-.8-.17-1-.5z" style="fill-rule:evenodd;clip-rule:evenodd"/></svg>